PathFileType	4	(X/Y/Z)	/Users/visionmauri/Downloads/Videos/OAW11-top_Sports2D/OAW11-top_Sports2D_px_person00.trc
DataRate	CameraRate	NumFrames	NumMarkers	Units	OrigDataRate	OrigDataStartFrame	OrigNumFrames
30.0	30.0	5	22	m	30.0	1083	2166
Frame#	Time	Hip			RHip			RKnee			RAnkle			RBigToe			RSmallToe			RHeel			LHip			LKnee			LAnkle			LBigToe			LSmallToe			LHeel			Neck			Head			Nose			RShoulder			RElbow			RWrist			LShoulder			LElbow			LWrist			
		X1	Y1	Z1	X2	Y2	Z2	X3	Y3	Z3	X4	Y4	Z4	X5	Y5	Z5	X6	Y6	Z6	X7	Y7	Z7	X8	Y8	Z8	X9	Y9	Z9	X10	Y10	Z10	X11	Y11	Z11	X12	Y12	Z12	X13	Y13	Z13	X14	Y14	Z14	X15	Y15	Z15	X16	Y16	Z16	X17	Y17	Z17	X18	Y18	Z18	X19	Y19	Z19	X20	Y20	Z20	X21	Y21	Z21	X22	Y22	Z22
1083	36.11667436489608	499.9841980637528	591.6028082005946	0.0	490.1829169727352	592.1973389436719	0.0	486.7857897601947	636.2509892715211	0.0	489.6773840122658	677.8351462417622	0.0	475.33734074514575	690.8227902223223	0.0	474.84945329152674	688.4204636901695	0.0	494.74128721778237	686.6213114161761	0.0	510.3045463670159	592.5266045393676	0.0	513.3877921268712	636.6731210326296	0.0	525.1277306111792	681.358672970801	0.0	509.91556601683794	694.3167577898838	0.0	515.8192470525819	695.4977680402578	0.0	531.2194404350381	689.6009185693596	0.0	503.5660614214068	523.2959135922695	0.0	500.00277069341365	499.8523628082101	0.0	495.9864801585424	514.2704708236273	0.0	490.8271618555284	530.7371335261302	0.0	484.7140345339009	563.8473394937232	0.0	468.51868209811073	586.9901825940887	0.0	520.2595938699613	529.7404727316715	0.0	531.9111959928057	566.1031175830882	0.0	529.656182217174	598.8202105671932	0.0
1084	36.15002309468822	498.745469293466	591.334819510838	0.0	488.65045660452114	591.9842391499237	0.0	486.2017218264674	635.8394926459708	0.0	489.5004582840658	677.6385071478815	0.0	475.20470604556937	690.8308689339509	0.0	474.6506205819824	688.459915150529	0.0	494.4411296974843	686.5690253716391	0.0	509.2679294413348	592.1665207255656	0.0	512.5732176149126	635.9837088872106	0.0	525.1546853814752	681.1584381396544	0.0	510.1532020887638	694.4232294962437	0.0	516.054506638642	695.3789698649298	0.0	531.3005097852866	689.4047768628584	0.0	502.24784489060494	523.0322243956088	0.0	498.7236509212601	498.08562940338606	0.0	495.2241868170596	513.5213654660718	0.0	488.6340823928292	530.5541175048735	0.0	482.36155072862937	563.3171397990241	0.0	467.084656647828	587.0648240680359	0.0	519.116296170506	529.6372494505339	0.0	530.9680298955263	566.080581093452	0.0	528.724484718712	598.4059601321323	0.0
1085	36.18337182448037	497.6442342990899	591.2505119100822	0.0	487.3493508738045	591.7061485474572	0.0	485.7145713372255	635.5427686801498	0.0	489.3971264905947	677.5887200451506	0.0	475.0324677721992	690.7811464315213	0.0	474.3885240569818	688.4701683305142	0.0	494.19610665487625	686.3886204723658	0.0	508.2706041355679	592.035706817053	0.0	511.8147715725831	635.7475087297715	0.0	524.7544760938375	681.102523823161	0.0	510.5513229779961	694.5071296600292	0.0	516.4516914837573	695.239781938896	0.0	530.9634780666764	689.1863432007906	0.0	500.8303778908818	522.91564339742	0.0	497.92326872059726	496.81733455929873	0.0	494.7205580551908	513.1253882387532	0.0	486.49898936208245	530.3632950983204	0.0	480.1996546662609	563.0292058124204	0.0	465.57115288317016	587.3102211687827	0.0	518.0010387346791	529.5606598147122	0.0	530.1335779606032	566.0404411539021	0.0	527.9558976475337	598.3283965235963	0.0
1086	36.21672055427252	496.6865745473096	591.4724976591955	0.0	486.3022351014524	591.6316249202919	0.0	485.25698846924905	635.6957470740892	0.0	489.1775793719098	677.813803611171	0.0	474.8081075477326	690.7652631199347	0.0	474.16809519733175	688.4648955059903	0.0	494.0640988483657	686.173395967029	0.0	507.4488430680941	592.1575584106437	0.0	510.96792930256345	635.834015800125	0.0	523.8076238706273	681.0450632158181	0.0	511.09859079183025	694.6034136763599	0.0	517.2139134230013	695.1623736283074	0.0	529.8027625638731	688.7932511924976	0.0	499.2999205978173	522.9048087269578	0.0	497.3144375454138	497.12628050183343	0.0	494.06686133655523	513.583079908739	0.0	484.60509555566273	530.2531334466408	0.0	478.45235816888464	562.905570533511	0.0	464.31809451568387	587.3983669540887	0.0	517.0505191450249	529.5360174699875	0.0	529.3912903043004	565.8278493219393	0.0	527.2631370978113	598.4321291074226	0.0
1087	36.250069284064665	495.82435180273944	591.8722198742012	0.0	485.29169453116464	591.8344045538381	0.0	484.8002678625248	636.0661792441592	0.0	488.86494291715337	678.2596276681933	0.0	474.7579178489312	690.7826129324878	0.0	474.0888048985268	688.4489942497298	0.0	493.96145847631607	686.0401782012948	0.0	506.80145805034533	592.4195062945935	0.0	509.95156411637566	635.9076631620987	0.0	522.4114944642926	680.5868825299917	0.0	511.64908508356046	694.558098814866	0.0	518.2284502443005	694.9900268074587	0.0	527.7697270484529	687.9262674307837	0.0	497.8713240924634	522.6866597093444	0.0	496.6916231568411	498.2129969681337	0.0	493.3515992255887	514.0146077584382	0.0	483.0619652148799	530.2659730073897	0.0	477.0268885220816	562.5621040063	0.0	463.6785681080655	586.8131025754016	0.0	516.3516353398057	529.5398319455646	0.0	528.6065651252779	565.4654655283484	0.0	526.4451248528866	598.1434093831833	0.0
